<?xml version="1.0" encoding="utf-8"?>
<!-- Generator: Adobe Illustrator 24.3.0, SVG Export Plug-In . SVG Version: 6.00 Build 0)  -->
<svg version="1.1" id="Layer_1" xmlns="http://www.w3.org/2000/svg" xmlns:xlink="http://www.w3.org/1999/xlink" x="0px" y="0px"
	 viewBox="0 0 373 40" style="enable-background:new 0 0 373 40;" xml:space="preserve">
<g>
	<g id="ADKPGENK0002-MainLW-RGB-black_3_">
		<g>
			<path id="symbol_4_" d="M10.15397,30.27363l17.66797-10.98966h9.16477c0.28199,0,0.53578,0.22559,0.53578,0.53578
				c0,0.25379-0.11281,0.3666-0.25379,0.4512l-8.67772,5.20142c-0.56398,0.3384-0.7614,1.01519-0.7614,1.52277l-0.00871,3.27848
				h11.02697V11.21898c0-0.36658-0.28199-0.67678-0.70496-0.67678H27.62456L10,21.48351v8.79013H10.15397z"/>
		</g>
	</g>
	<g>
		<polygon points="154.99496,30.27246 170.87752,30.27246 170.87752,26.00589 160.02614,26.00589 160.02614,22.42979 
			168.75658,22.42979 168.75658,18.13853 160.02614,18.13853 160.02614,14.8091 170.87752,14.8091 170.87752,10.54253 
			154.99496,10.54253 		"/>
		<path d="M55.16181,10.54253L47.5905,30.27246h5.20379l1.32159-3.69935h8.45182l1.29996,3.69935h5.3764l-7.66996-19.72992H55.16181
			z M55.61366,22.3805l2.76309-7.73439l2.71775,7.73439H55.61366z"/>
		<polygon points="90.82357,14.8091 97.18649,14.8091 97.18649,30.27246 102.21757,30.27246 102.21757,14.8091 108.5558,14.8091 
			108.5558,10.54253 90.82357,10.54253 		"/>
		<path d="M83.49892,22.72583c0,2.56483-1.57841,3.6007-4.26665,3.6007c-2.6142,0-4.31585-1.08516-4.31585-3.6007V10.54253h-5.03117
			v12.75051c0,5.69695,5.08045,7.47266,9.34702,7.47266c4.24197,0,9.29774-1.77571,9.29774-7.47266V10.54253h-5.03109V22.72583z"/>
		<polygon points="212.40892,10.54255 206.41602,10.54255 199.23923,18.55782 199.23923,10.54255 194.20815,10.54255 
			194.23274,30.27245 199.23923,30.27245 199.23923,22.7751 206.04602,30.27245 212.40892,30.27245 203.23453,20.53083 		"/>
		<path d="M143.15709,10.54253h-9.22369v19.72992h9.22369c7.07806,0,9.02638-2.63888,9.02638-10.01298
			C152.18347,13.32943,150.3092,10.54253,143.15709,10.54253z M142.95978,26.00589h-3.9953V14.8091h3.9953
			c3.15683,0,4.09396,0.86326,4.09396,5.45037C147.05374,24.45217,145.99327,26.00589,142.95978,26.00589z"/>
		<path d="M186.09421,18.65647l-4.5872-0.51794c-2.68816-0.29595-3.35403-0.96182-3.35403-1.87427
			c0-1.01119,1.38112-1.92373,4.06927-1.92373c2.58951,0,3.94592,0.96191,4.1926,2.41689h4.93243
			C191.10069,12.58951,187.59865,10,182.49352,10c-6.06697,0-9.12505,2.41689-9.12505,6.68346
			c0,3.47745,2.02229,5.10514,6.21489,5.54902l4.66118,0.49325c1.77571,0.1973,2.58951,0.88785,2.58951,1.77571
			c0,1.01119-1.18372,1.92364-4.04459,1.92364c-3.30475,0-4.63649-0.83848-4.85847-2.51554h-4.83379
			c0.22191,4.53784,3.18141,6.85616,9.51965,6.85616c5.79559,0,9.02638-2.54023,9.02638-6.36291
			C191.64323,21.07336,189.71959,19.07576,186.09421,18.65647z"/>
		<path d="M120.27043,10c-7.17671,0-10.90074,4.41459-10.90074,10.35821c0,5.96822,3.72403,10.4075,10.90074,10.4075
			c7.2014,0,10.92543-4.43927,10.92543-10.4075C131.19586,14.41459,127.47183,10,120.27043,10z M120.27043,26.32644
			c-3.72403,0-5.771-2.26887-5.771-5.96822c0-3.62538,2.04697-5.91903,5.771-5.91903c3.74872,0,5.77101,2.29365,5.77101,5.91903
			C126.04144,24.05756,124.01915,26.32644,120.27043,26.32644z"/>
	</g>
</g>
<g>
	<path d="M224.84131,12.48926v6.70703h7.83496v1.94482h-7.83496v7.18701h8.45508v1.94434h-10.82227h-0.02832V10.54443h2.39551
		h8.45508v1.94482H224.84131z"/>
	<path d="M246.52783,30.27246l-3.86133-6.05957l-3.97363,6.05957h-2.56445l5.0166-7.44043l-4.7915-7.44043h2.62109l3.69189,6.11621
		l3.77686-6.11621h2.53613l-4.81885,7.41211l5.04443,7.46875H246.52783z"/>
	<path d="M264.40381,22.09961v1.40918c0,4.03027-2.56445,7.10156-6.11572,7.10156c-1.52197,0-2.76172-0.50684-3.80469-1.40918
		v6.70801h-2.36719V15.33545h2.00098l0.16895,1.69092c1.07129-1.24023,2.56494-1.97266,4.45312-1.97266
		C262.12109,15.05371,264.40381,17.90039,264.40381,22.09961z M262.03662,22.07129c0-3.29736-1.38086-5.10107-3.72021-5.10107
		c-1.60645,0-2.95898,0.70459-3.83301,2.02881v8.28613c0.9585,0.95801,2.05762,1.4375,3.49463,1.4375
		c2.48047,0,4.05859-1.91699,4.05859-5.15771V22.07129z"/>
	<path d="M279.57959,23.59277h-10.14551c0,3.38232,1.69092,5.12988,4.62158,5.12988c1.74756,0,2.93115-0.62012,4.05859-1.3252
		l0.90186,1.49414c-1.18359,0.92969-3.01562,1.71875-5.07275,1.71875c-4.31201,0-6.84863-3.01562-6.84863-7.07373v-1.46533
		c0-3.9458,2.42383-7.01758,6.42578-7.01758c3.80469,0,6.14404,2.62109,6.14404,7.10205
		C279.66455,22.69141,279.63623,23.22656,279.57959,23.59277z M277.52246,21.70508c0-2.95947-1.4375-4.76318-4.00195-4.76318
		c-2.62109,0-4.05859,1.85986-4.08643,4.93213h8.08838V21.70508z"/>
	<path d="M290.95117,15.3916l-0.42285,2.22656c-0.28174-0.05615-0.5918-0.1123-0.95801-0.1123
		c-1.86035,0-3.354,0.90137-4.17139,3.46631v9.30029h-2.36719V15.3916h1.77539l0.3667,2.59277
		c0.90137-2.08496,2.53613-2.84619,4.08643-2.84619C290.04932,15.13818,290.58496,15.25098,290.95117,15.3916z"/>
	<path d="M301.50684,30.27246c-0.5918,0.16895-1.46533,0.33789-2.31104,0.33789c-2.53613,0-3.97363-1.15527-3.97363-3.5791v-9.7793
		h-2.36719V15.3916h2.39551l0.19727-3.5791h2.1416v3.5791h3.49463v1.86035h-3.49463v9.66699
		c0,1.21191,0.67676,1.80371,2.0293,1.80371c0.64844,0,1.15576-0.08496,1.60645-0.19727L301.50684,30.27246z"/>
	<path d="M313.8252,12.48926v6.70703h7.83496v1.94482h-7.83496v7.18701h8.45508v1.94434h-10.82227h-0.02832V10.54443h2.39551
		h8.45508v1.94482H313.8252z"/>
	<path d="M328.27686,27.36963c0,0.9585,0.33838,1.32471,1.12744,1.32471c0.28174,0,0.50732-0.05664,0.78906-0.11279l0.31006,1.69092
		c-0.50732,0.19727-1.0708,0.33789-1.71924,0.33789c-1.74756,0-2.87451-0.98633-2.87451-2.84619V9.41699h2.36719V27.36963z"/>
	<path d="M336.20557,15.3916v14.88086h-2.36719V17.25195h-2.33936V15.3916H336.20557z M333.41553,11.10791
		c0-0.81689,0.64844-1.49365,1.49365-1.49365c0.8457,0,1.49414,0.67676,1.49414,1.49365c0,0.8457-0.64844,1.52197-1.49414,1.52197
		C334.06396,12.62988,333.41553,11.95361,333.41553,11.10791z"/>
	<path d="M347.87451,30.27246c-0.5918,0.16895-1.46533,0.33789-2.31104,0.33789c-2.53613,0-3.97363-1.15527-3.97363-3.5791v-9.7793
		h-2.36719V15.3916h2.39551l0.19727-3.5791h2.1416v3.5791h3.49512v1.86035h-3.49512v9.66699
		c0,1.21191,0.67676,1.80371,2.0293,1.80371c0.64844,0,1.15576-0.08496,1.60645-0.19727L347.87451,30.27246z"/>
	<path d="M361.99268,23.59277h-10.14551c0,3.38232,1.69092,5.12988,4.62158,5.12988c1.74756,0,2.93115-0.62012,4.05859-1.3252
		l0.90186,1.49414c-1.18359,0.92969-3.01562,1.71875-5.07275,1.71875c-4.31201,0-6.84863-3.01562-6.84863-7.07373v-1.46533
		c0-3.9458,2.42383-7.01758,6.42578-7.01758c3.80469,0,6.14404,2.62109,6.14404,7.10205
		C362.07764,22.69141,362.04932,23.22656,361.99268,23.59277z M359.93555,21.70508c0-2.95947-1.4375-4.76318-4.00195-4.76318
		c-2.62109,0-4.05859,1.85986-4.08643,4.93213h8.08838V21.70508z"/>
</g>
</svg>
