<svg xmlns="http://www.w3.org/2000/svg" width="965.0002" height="1024" viewBox="0 0 965.0002 1024"><g id="b82a632e-4888-4760-a119-707431a1add2" data-name="container - LIGHT BLUE"><path id="aafa4d6f-b327-4d41-89f7-193601ba9ff9" data-name="back layer" d="M185,.15,915,160h79v864H166a52,52,0,0,1-52-52V754.2921L183.4662,2.4109Z" transform="translate(-29)" fill="#36697f"/><path id="e62b8b6d-a2d5-42f5-95e3-82be612e200d" data-name="primary facade" d="M156,0H842a52,52,0,0,1,52,52V720a0,0,0,0,1,0,0H156a0,0,0,0,1,0,0V0A0,0,0,0,1,156,0Z" fill="#37a5cc"/><polygon id="b696bc37-b8aa-4354-bbfa-d3faf3be85c0" data-name="flap" points="0 814 156 720 156 0 0 94 0 814" fill="#7dc6dd"/></g><g id="a0880521-7399-45a5-9c9f-e67267c4ec84" data-name="product subscript template"><path d="M453.144,909.0781h-45.36l-8.4248,33.0489h-37.584l43.2-151.2022h50.3291L500.88,942.127H462.4321Zm-23.1123-93.3125L414.6958,880.998h31.1035Z" transform="translate(-29)" fill="#fff"/><path d="M572.3516,881.8613V942.127h-37.8V882.0781L486.814,790.9248H526.56l27.6484,63.7207L581.64,790.9248H619.873Z" transform="translate(-29)" fill="#fff"/><path d="M698.2773,909.0781h-45.36l-8.4248,33.0489h-37.584l43.2-151.2022h50.3291L746.0137,942.127H707.5654ZM675.165,815.7656,659.8291,880.998h31.1035Z" transform="translate(-29)" fill="#fff"/></g><g id="e31ea7dd-e699-418c-8488-ea7f2ad8fb14" data-name="product initial template"><path d="M759.7764,161.1221V560.127H665.1553V302.4834L598.4648,559.5566v.57H504.4131L433.7324,292.2236V560.127h-85.501V161.1221H473.6328l80.3711,320.3437,84.3613-319.2041-.57-1.14Z" transform="translate(-29)" fill="#fff"/></g></svg>